<?xml version="1.0" standalone="no"?>
<!DOCTYPE svg PUBLIC "-//W3C//DTD SVG 20010904//EN"
 "http://www.w3.org/TR/2001/REC-SVG-20010904/DTD/svg10.dtd">
<svg version="1.0" xmlns="http://www.w3.org/2000/svg"
 width="325.000000pt" height="769.000000pt" viewBox="0 0 325.000000 769.000000"
 preserveAspectRatio="xMidYMid meet">

<g transform="translate(0.000000,769.000000) scale(0.100000,-0.100000)"
fill="#000000" stroke="none">
<path d="M1762 7390 c-2 -66 10 -93 27 -62 7 14 8 23 1 27 -5 3 -11 -2 -12
-12 -1 -10 -4 9 -8 42 l-7 60 -1 -55z"/>
<path d="M1831 7383 c0 -18 -5 -33 -10 -33 -5 0 -9 -36 -9 -80 0 -87 -9 -140
-22 -140 -5 0 -10 21 -12 48 -2 29 -9 -12 -18 -108 -12 -130 -16 -147 -21
-105 -5 44 -6 46 -8 15 -2 -19 -7 -46 -11 -60 -6 -20 -8 -13 -10 30 -2 59 -4
58 -15 -5 -6 -33 -9 -37 -15 -20 -8 18 -9 18 -11 -5 -1 -14 -1 -32 0 -40 4
-35 2 -113 -3 -118 -3 -2 -14 6 -25 19 l-20 24 -1 -34 c0 -28 -2 -31 -14 -22
-12 10 -15 7 -19 -21 -2 -18 -5 23 -5 91 -1 68 -5 122 -8 119 -3 -3 -7 -91
-10 -194 -5 -217 -22 -317 -23 -141 -1 76 -4 106 -12 101 -6 -3 -9 -20 -6 -38
4 -29 -6 -121 -20 -176 -5 -22 -7 -20 -18 20 -11 42 -12 37 -18 -100 -4 -80
-11 -163 -16 -185 l-9 -40 -1 36 c0 20 -4 51 -8 70 -5 28 -7 30 -14 14 -5 -15
-8 -9 -8 20 0 31 2 36 9 20 8 -19 9 -19 9 3 1 12 -3 22 -9 22 -6 0 -9 64 -7
178 3 179 -2 253 -15 220 -4 -9 -3 -31 2 -48 5 -19 5 -28 -1 -25 -5 4 -9 -33
-9 -91 0 -124 -18 -115 -22 10 -2 64 -7 91 -16 94 -11 3 -13 -9 -11 -54 2 -35
-2 -68 -10 -83 -7 -13 -11 -44 -9 -72 3 -52 -8 -68 -15 -21 -2 15 -5 -4 -6
-43 -1 -43 -5 -65 -10 -57 -5 9 -11 -14 -15 -60 -17 -186 -18 -192 -30 -170
-9 17 -12 5 -14 -66 -3 -132 -21 -454 -32 -572 -6 -58 -12 -152 -15 -210 -3
-58 -10 -154 -16 -215 -30 -312 -27 -641 11 -1146 14 -194 1 -439 -24 -439
-10 0 -15 -48 -20 -207 -4 -115 -10 -219 -13 -232 -4 -17 -2 -22 6 -17 7 5 11
0 11 -13 0 -11 5 -23 10 -26 11 -7 14 -65 4 -65 -4 0 -13 8 -20 18 -12 15 -13
13 -14 -22 0 -33 2 -37 15 -26 9 7 17 11 19 9 12 -12 22 -586 12 -618 -6 -18
-5 -22 5 -16 9 6 10 2 5 -16 -4 -13 -9 -113 -12 -222 -3 -109 -9 -210 -15
-224 -8 -21 -7 -24 6 -19 19 7 19 -15 0 -69 -16 -45 -19 -72 -7 -77 10 -4 -1
-306 -12 -331 -6 -13 -5 -16 6 -12 11 5 17 -4 21 -32 4 -21 7 -47 7 -58 -1
-19 -1 -19 -14 -2 -12 16 -14 16 -20 1 -3 -8 -6 -24 -6 -35 0 -17 3 -18 20 -9
19 10 19 8 14 -102 -6 -130 -9 -165 -20 -193 -7 -18 -6 -18 9 -6 15 12 17 9
17 -30 0 -32 3 -40 10 -29 9 13 10 13 10 0 0 -9 18 -30 39 -48 27 -23 38 -38
34 -49 -4 -10 -2 -14 4 -10 6 4 14 0 17 -8 4 -12 10 -13 25 -6 29 16 81 -5 81
-32 0 -20 1 -20 13 -3 11 15 18 16 34 8 11 -6 23 -18 26 -27 4 -8 13 -12 22
-9 8 3 15 1 15 -5 0 -6 8 -11 18 -11 10 0 23 -5 28 -10 16 -16 71 -20 127 -9
34 6 54 6 63 -2 9 -7 21 -6 44 6 17 9 35 13 40 10 5 -3 12 0 15 5 5 7 12 5 20
-7 11 -14 15 -15 29 -4 9 8 31 11 56 8 22 -2 43 -1 46 4 9 15 51 10 74 -9 22
-18 65 -19 75 -2 3 4 23 4 45 -1 33 -7 49 -5 85 11 53 24 63 25 87 3 17 -15
18 -15 18 6 0 13 7 35 16 51 21 34 54 30 54 -7 0 -21 4 -24 21 -20 19 5 20 4
5 -12 -9 -10 -14 -25 -10 -35 7 -19 16 -20 32 -4 7 7 12 8 12 2 0 -6 -5 -15
-10 -20 -11 -11 -4 -44 9 -44 3 0 18 12 34 25 28 25 35 45 16 45 -8 0 -10 15
-6 48 4 26 9 65 12 87 l5 40 -11 -34 c-5 -18 -13 -31 -15 -28 -5 4 11 239 29
454 2 17 -1 29 -5 27 -12 -8 -10 62 3 89 8 18 8 52 -1 128 -6 57 -14 130 -17
162 -3 31 -9 57 -14 57 -6 0 -7 5 -4 10 4 6 10 8 14 5 13 -8 21 103 9 136 -5
16 -7 42 -2 57 6 24 13 100 16 197 1 17 -2 75 -7 129 -5 59 -5 97 1 94 19 -12
22 309 3 322 -10 7 2 211 12 204 5 -2 6 -35 4 -72 -4 -67 -4 -67 6 -17 5 28
11 93 13 145 2 52 1 65 -1 28 -2 -38 -8 -68 -13 -68 -17 0 -11 95 11 156 11
32 22 70 24 84 1 14 0 17 -2 8 -5 -21 -19 -24 -26 -5 -4 9 -6 9 -6 -1 -1 -7
-5 -10 -11 -7 -13 8 -13 122 0 127 5 2 12 26 15 53 2 28 2 41 -1 30 -3 -11
-11 -24 -16 -30 -10 -10 -4 65 9 109 3 10 1 16 -3 13 -5 -3 -8 20 -7 51 1 43
5 58 17 60 18 4 22 28 5 34 -6 2 -14 19 -19 38 l-8 35 -7 -33 c-11 -46 -31
-25 -40 39 -9 62 9 89 20 32 7 -35 8 -36 15 -13 3 14 3 27 -1 30 -11 8 -14 64
-4 80 12 19 13 250 1 250 -4 0 -5 -12 -2 -27 5 -19 4 -24 -3 -14 -5 8 -7 39
-4 70 3 41 2 52 -6 41 -9 -12 -11 -9 -11 14 0 23 -3 26 -14 17 -11 -9 -15 -7
-20 11 -10 38 -7 120 4 113 12 -7 13 22 4 88 -5 33 -10 44 -20 40 -9 -3 -15 2
-16 13 0 11 -3 33 -4 49 -2 17 0 84 4 150 l6 120 8 -70 c15 -141 16 -160 6
-166 -7 -5 -5 -14 4 -28 15 -21 16 -20 22 21 7 42 8 42 20 19 l13 -24 5 34 c3
18 2 45 -3 59 l-7 25 -1 -28 c-1 -40 -21 -23 -21 18 0 18 -4 35 -8 37 -5 2 -7
31 -4 65 2 35 8 60 13 57 12 -7 11 13 -2 38 -6 11 -7 18 -2 15 10 -6 -1 100
-11 110 -2 3 -8 -16 -11 -42 -6 -34 -10 -44 -19 -35 -7 7 -11 61 -11 151 0
111 3 142 15 149 8 5 18 6 22 4 4 -3 8 20 8 51 0 31 3 54 8 52 4 -3 6 26 4 63
-3 54 -7 68 -18 63 -8 -3 -14 -14 -14 -25 0 -12 4 -17 12 -12 8 5 9 -2 5 -26
-4 -18 -7 -47 -7 -64 0 -21 -3 -27 -9 -18 -4 8 -7 53 -6 100 1 48 -1 78 -5 67
-5 -13 -9 4 -11 50 -2 39 -1 71 2 73 4 1 5 75 3 163 -2 130 -6 165 -19 186
-13 20 -18 53 -20 142 -2 64 -13 172 -24 241 -12 69 -22 174 -23 234 -1 70 -6
119 -14 135 -8 14 -14 44 -14 67 0 61 -12 134 -21 134 -10 0 -25 -99 -29 -187
0 -20 -20 -15 -20 5 0 15 -2 15 -11 2 -8 -11 -9 -7 -5 19 6 34 -10 336 -21
401 -6 33 -6 34 -13 10 -5 -14 -9 -86 -9 -160 -2 -160 -20 -216 -23 -70 -1 52
-3 73 -5 45 -2 -27 -7 -59 -12 -70 -17 -38 -19 -53 -10 -62 6 -6 7 -43 2 -94
-6 -68 -9 -78 -14 -49 -4 23 -7 27 -8 12 -1 -28 -21 -19 -21 9 0 11 -4 17 -10
14 -6 -4 -10 7 -10 27 0 25 -3 29 -10 18 -6 -10 -10 -11 -10 -2 0 6 -9 21 -20
32 l-20 20 0 -87 c0 -50 -4 -83 -9 -78 -12 13 -22 137 -10 129 5 -3 9 -1 9 5
0 5 -5 13 -10 16 -6 4 -8 16 -4 27 4 13 2 18 -4 14 -6 -3 -14 -25 -18 -49 l-7
-42 -13 39 c-8 21 -20 46 -26 54 -10 13 -10 14 0 8 19 -11 15 35 -9 106 -19
56 -20 83 -19 278 1 118 2 226 3 240 2 51 -3 103 -10 96 -7 -7 -14 -123 -13
-206 0 -33 -2 -41 -10 -30 -5 8 -10 37 -10 64 0 97 -9 38 -21 -144 -12 -187
-27 -265 -30 -160 -1 50 -2 52 -9 20 l-7 -35 -2 31 c-2 50 11 124 20 118 5 -3
9 -1 9 5 0 5 -5 11 -10 13 -8 2 -7 33 0 98 7 62 8 121 2 170 -5 41 -10 60 -11
43z"/>
<path d="M2058 7224 c-2 -19 0 -37 4 -40 4 -3 8 13 8 35 0 51 -6 53 -12 5z"/>
<path d="M1701 7103 c-1 -23 3 -44 7 -47 4 -2 6 12 4 32 -5 56 -10 62 -11 15z"/>
<path d="M1621 7114 c0 -11 3 -14 6 -6 3 7 2 16 -1 19 -3 4 -6 -2 -5 -13z"/>
<path d="M2151 7094 c0 -11 3 -14 6 -6 3 7 2 16 -1 19 -3 4 -6 -2 -5 -13z"/>
<path d="M1583 7010 c0 -25 2 -35 4 -22 2 12 2 32 0 45 -2 12 -4 2 -4 -23z"/>
<path d="M1661 7014 c0 -11 3 -14 6 -6 3 7 2 16 -1 19 -3 4 -6 -2 -5 -13z"/>
<path d="M2111 6984 c0 -11 3 -14 6 -6 3 7 2 16 -1 19 -3 4 -6 -2 -5 -13z"/>
<path d="M1601 6921 c0 -45 3 -71 8 -65 5 5 6 37 1 74 l-7 65 -2 -74z"/>
<path d="M1952 6970 c0 -14 2 -19 5 -12 2 6 2 18 0 25 -3 6 -5 1 -5 -13z"/>
<path d="M1681 6964 c0 -11 3 -14 6 -6 3 7 2 16 -1 19 -3 4 -6 -2 -5 -13z"/>
<path d="M2031 6934 c0 -11 3 -14 6 -6 3 7 2 16 -1 19 -3 4 -6 -2 -5 -13z"/>
<path d="M2002 6920 c0 -14 2 -19 5 -12 2 6 2 18 0 25 -3 6 -5 1 -5 -13z"/>
<path d="M2261 6854 c0 -11 3 -14 6 -6 3 7 2 16 -1 19 -3 4 -6 -2 -5 -13z"/>
<path d="M1551 6844 c0 -11 3 -14 6 -6 3 7 2 16 -1 19 -3 4 -6 -2 -5 -13z"/>
<path d="M2006 6836 c-3 -13 -2 -35 3 -48 8 -19 10 -15 10 25 1 52 -4 60 -13
23z"/>
<path d="M2320 6844 c0 -11 6 -29 14 -39 12 -17 13 -17 18 8 3 14 1 32 -3 39
-7 10 -9 10 -9 -2 0 -13 -1 -13 -10 0 -8 12 -10 11 -10 -6z"/>
<path d="M1542 6750 c0 -19 2 -27 5 -17 2 9 2 25 0 35 -3 9 -5 1 -5 -18z"/>
<path d="M2050 6746 c0 -19 5 -38 10 -41 6 -4 10 10 10 34 0 23 -4 41 -10 41
-5 0 -10 -15 -10 -34z"/>
<path d="M2088 6745 c2 -14 6 -25 8 -25 2 0 4 11 4 25 0 14 -4 25 -9 25 -4 0
-6 -11 -3 -25z"/>
<path d="M2022 6740 c0 -14 2 -19 5 -12 2 6 2 18 0 25 -3 6 -5 1 -5 -13z"/>
<path d="M1992 6700 c0 -19 2 -27 5 -17 2 9 2 25 0 35 -3 9 -5 1 -5 -18z"/>
<path d="M2092 6670 c0 -14 2 -19 5 -12 2 6 2 18 0 25 -3 6 -5 1 -5 -13z"/>
<path d="M2281 6633 c-1 -24 4 -43 9 -43 12 0 12 24 0 60 -7 21 -8 19 -9 -17z"/>
<path d="M1481 6614 c0 -11 3 -14 6 -6 3 7 2 16 -1 19 -3 4 -6 -2 -5 -13z"/>
<path d="M1422 6540 c0 -14 2 -19 5 -12 2 6 2 18 0 25 -3 6 -5 1 -5 -13z"/>
<path d="M2485 5751 c-3 -6 1 -21 10 -33 16 -23 16 -23 9 7 -8 37 -10 39 -19
26z"/>
<path d="M2491 5643 c-1 -29 -5 -53 -9 -53 -5 0 -7 -13 -4 -30 7 -51 22 -33
22 28 0 35 4 52 9 44 5 -9 8 -4 7 16 -1 17 -4 28 -8 26 -3 -2 -9 2 -11 8 -3 7
-6 -11 -6 -39z"/>
<path d="M2490 5466 c0 -24 -5 -46 -11 -48 -8 -3 -7 -16 2 -47 l13 -43 11 40
c13 43 8 142 -6 142 -5 0 -9 -20 -9 -44z"/>
<path d="M2542 5095 l1 -70 7 55 c4 30 3 62 -1 70 -5 9 -8 -14 -7 -55z"/>
<path d="M2496 5022 c-5 -9 -10 -128 -6 -172 1 -14 4 -19 7 -12 2 6 9 10 14 7
4 -3 11 7 14 22 3 15 10 47 15 71 13 53 13 65 0 57 -5 -3 -10 -17 -10 -31 0
-13 -5 -24 -11 -24 -8 0 -10 14 -6 40 5 37 -5 61 -17 42z"/>
<path d="M2582 4850 c0 -19 2 -27 5 -17 2 9 2 25 0 35 -3 9 -5 1 -5 -18z"/>
<path d="M2601 4774 c0 -11 3 -14 6 -6 3 7 2 16 -1 19 -3 4 -6 -2 -5 -13z"/>
<path d="M2572 4720 c0 -14 2 -19 5 -12 2 6 2 18 0 25 -3 6 -5 1 -5 -13z"/>
<path d="M2611 4704 c0 -11 3 -14 6 -6 3 7 2 16 -1 19 -3 4 -6 -2 -5 -13z"/>
<path d="M2541 4664 c0 -11 3 -14 6 -6 3 7 2 16 -1 19 -3 4 -6 -2 -5 -13z"/>
<path d="M2582 4648 c-7 -7 -11 -21 -11 -32 1 -21 1 -21 6 -1 3 11 10 26 15
33 13 15 6 16 -10 0z"/>
<path d="M2522 4260 c0 -19 2 -27 5 -17 2 9 2 25 0 35 -3 9 -5 1 -5 -18z"/>
<path d="M2541 4184 c-1 -7 5 -26 12 -43 13 -31 27 -32 27 -3 0 9 -3 12 -7 8
-4 -3 -12 6 -19 21 -7 16 -13 23 -13 17z"/>
<path d="M2551 4054 c1 -21 5 -52 9 -69 5 -19 6 -6 3 35 -6 73 -14 94 -12 34z"/>
<path d="M2581 3964 c0 -11 3 -14 6 -6 3 7 2 16 -1 19 -3 4 -6 -2 -5 -13z"/>
<path d="M2610 3706 c0 -8 4 -17 9 -20 5 -4 7 3 4 14 -6 23 -13 26 -13 6z"/>
<path d="M2572 3655 c0 -16 2 -22 5 -12 2 9 2 23 0 30 -3 6 -5 -1 -5 -18z"/>
<path d="M2551 3644 c0 -11 3 -14 6 -6 3 7 2 16 -1 19 -3 4 -6 -2 -5 -13z"/>
<path d="M2592 3610 c0 -14 2 -19 5 -12 2 6 2 18 0 25 -3 6 -5 1 -5 -13z"/>
<path d="M2592 3545 c0 -16 2 -22 5 -12 2 9 2 23 0 30 -3 6 -5 -1 -5 -18z"/>
<path d="M2695 3270 c3 -5 8 -10 11 -10 2 0 4 5 4 10 0 6 -5 10 -11 10 -5 0
-7 -4 -4 -10z"/>
<path d="M2613 3223 c4 -20 2 -42 -4 -49 -7 -8 -7 -14 1 -19 5 -3 13 2 16 12
3 10 10 30 16 45 11 30 4 48 -19 48 -12 0 -14 -7 -10 -37z"/>
<path d="M2591 3134 c0 -11 3 -14 6 -6 3 7 2 16 -1 19 -3 4 -6 -2 -5 -13z"/>
<path d="M2581 3094 c0 -11 3 -14 6 -6 3 7 2 16 -1 19 -3 4 -6 -2 -5 -13z"/>
<path d="M2610 2991 c0 -25 6 -27 13 -6 4 8 2 17 -3 20 -6 4 -10 -3 -10 -14z"/>
<path d="M2701 2774 c0 -11 3 -14 6 -6 3 7 2 16 -1 19 -3 4 -6 -2 -5 -13z"/>
<path d="M2616 2773 c-3 -4 -6 -29 -5 -57 l1 -51 19 40 c10 22 19 45 19 51 0
14 -25 26 -34 17z"/>
<path d="M2592 2510 c0 -14 2 -19 5 -12 2 6 2 18 0 25 -3 6 -5 1 -5 -13z"/>
<path d="M2671 2514 c0 -11 3 -14 6 -6 3 7 2 16 -1 19 -3 4 -6 -2 -5 -13z"/>
<path d="M2613 2235 l2 -55 18 42 c19 45 17 68 -7 68 -12 0 -14 -12 -13 -55z"/>
<path d="M2593 1744 l1 -57 17 39 c24 53 23 74 0 74 -17 0 -19 -7 -18 -56z"/>
<path d="M2573 1700 c0 -47 2 -66 4 -42 2 23 2 61 0 85 -2 23 -4 4 -4 -43z"/>
<path d="M2624 1484 l1 -56 21 49 c23 52 22 63 -5 63 -14 0 -17 -9 -17 -56z"/>
<path d="M2600 1328 c0 -10 -4 -18 -8 -18 -5 0 -8 -23 -8 -52 l0 -52 18 39
c20 46 22 64 8 85 -8 13 -10 12 -10 -2z"/>
<path d="M2574 1060 c0 -58 1 -81 3 -52 2 28 2 76 0 105 -2 28 -3 5 -3 -53z"/>
<path d="M2599 888 c0 -2 -2 -30 -3 -62 -2 -46 0 -55 7 -38 17 38 30 25 24
-25 l-5 -48 23 50 c23 53 23 65 -1 65 -11 0 -13 6 -9 21 5 14 2 25 -6 30 -14
8 -28 12 -30 7z"/>
<path d="M1147 800 c-4 -14 -7 -36 -7 -49 0 -20 3 -22 12 -13 20 20 28 14 22
-18 -4 -18 -2 -30 4 -30 22 0 21 35 -1 84 -22 47 -24 49 -30 26z"/>
</g>
</svg>
